<?xml version="1.0" encoding="UTF-8" standalone="no"?><!DOCTYPE svg PUBLIC "-//W3C//DTD SVG 1.1//EN" "http://www.w3.org/Graphics/SVG/1.1/DTD/svg11.dtd"><svg width="100%" height="100%" viewBox="0 0 137 137" version="1.1" xmlns="http://www.w3.org/2000/svg" xmlns:xlink="http://www.w3.org/1999/xlink" xml:space="preserve" xmlns:serif="http://www.serif.com/" style="fill-rule:evenodd;clip-rule:evenodd;stroke-linejoin:round;stroke-miterlimit:2;"><g id="Lager_80"><path id="Path_89" d="M100,95.092l0,20.833c0,2.286 -1.881,4.167 -4.167,4.167l-75,-0c-2.285,-0 -4.166,-1.881 -4.166,-4.167l-0,-75c-0,-2.286 1.881,-4.167 4.166,-4.167l20.834,0c4.571,0 8.333,-3.761 8.333,-8.333c0,-4.572 -3.762,-8.333 -8.333,-8.333l-29.167,-0c-6.857,-0 -12.5,5.642 -12.5,12.5l0,91.666c0,6.858 5.643,12.5 12.5,12.5l91.667,0c6.857,0 12.5,-5.642 12.5,-12.5l-0,-29.166c-0,-4.572 -3.762,-8.334 -8.334,-8.334c-4.571,0 -8.333,3.762 -8.333,8.334Z" style="fill:#fffff9;fill-rule:nonzero;"/><path id="Rectangle_40" d="M133.333,11.758c0,-4.599 -3.734,-8.333 -8.333,-8.333l-50,-0c-4.599,-0 -8.333,3.734 -8.333,8.333c-0,4.6 3.734,8.334 8.333,8.334l50,-0c4.599,-0 8.333,-3.734 8.333,-8.334Z" style="fill:#fffff9;"/><path id="Rectangle_41" d="M125,70.092c4.599,-0 8.333,-3.734 8.333,-8.334l0,-50c0,-4.599 -3.734,-8.333 -8.333,-8.333c-4.599,0 -8.333,3.734 -8.333,8.333l-0,50c-0,4.6 3.734,8.334 8.333,8.334Z" style="fill:#fffff9;"/><g id="Group_37"><path id="Rectangle_42" d="M130.911,5.847c-3.228,-3.229 -8.471,-3.229 -11.699,-0l-83.454,83.453c-3.228,3.229 -3.228,8.471 0,11.7c3.229,3.228 8.471,3.228 11.7,-0l83.453,-83.453c3.229,-3.229 3.229,-8.472 0,-11.7Z" style="fill:#fff;"/></g></g></svg>